<?xml version="1.0" encoding="UTF-8" standalone="no"?>
<!-- Created with Inkscape (http://www.inkscape.org/) -->
<svg
   xmlns:dc="http://purl.org/dc/elements/1.1/"
   xmlns:cc="http://creativecommons.org/ns#"
   xmlns:rdf="http://www.w3.org/1999/02/22-rdf-syntax-ns#"
   xmlns:svg="http://www.w3.org/2000/svg"
   xmlns="http://www.w3.org/2000/svg"
   xmlns:sodipodi="http://sodipodi.sourceforge.net/DTD/sodipodi-0.dtd"
   xmlns:inkscape="http://www.inkscape.org/namespaces/inkscape"
   width="1420"
   height="1460"
   id="svg2"
   sodipodi:version="0.32"
   inkscape:version="0.46"
   sodipodi:docname="Nasa Wallops Insignia.svg"
   inkscape:output_extension="org.inkscape.output.svg.inkscape"
   version="1.0">
  <sodipodi:namedview
     id="base"
     pagecolor="#ffffff"
     bordercolor="#666666"
     borderopacity="1.0"
     gridtolerance="10000"
     guidetolerance="10"
     objecttolerance="10"
     inkscape:pageopacity="0.0"
     inkscape:pageshadow="2"
     inkscape:zoom="0.425"
     inkscape:cx="359.95331"
     inkscape:cy="792.35154"
     inkscape:document-units="px"
     inkscape:current-layer="layer1"
     showgrid="false"
     showborder="true"
     inkscape:showpageshadow="false"
     inkscape:window-width="1360"
     inkscape:window-height="864"
     inkscape:window-x="84"
     inkscape:window-y="2"
     borderlayer="false" />
  <defs
     id="defs4">
    <inkscape:perspective
       id="perspective10"
       inkscape:persp3d-origin="372.04724 : 350.78739 : 1"
       inkscape:vp_z="744.09448 : 526.18109 : 1"
       inkscape:vp_y="0 : 1000 : 0"
       inkscape:vp_x="0 : 526.18109 : 1"
       sodipodi:type="inkscape:persp3d" />
    <inkscape:perspective
       sodipodi:type="inkscape:persp3d"
       inkscape:vp_x="0 : 526.18109 : 1"
       inkscape:vp_y="0 : 1000 : 0"
       inkscape:vp_z="744.09448 : 526.18109 : 1"
       inkscape:persp3d-origin="372.04724 : 350.78739 : 1"
       id="perspective2390" />
    <inkscape:perspective
       sodipodi:type="inkscape:persp3d"
       inkscape:vp_x="0 : 526.18109 : 1"
       inkscape:vp_y="0 : 1000 : 0"
       inkscape:vp_z="744.09448 : 526.18109 : 1"
       inkscape:persp3d-origin="372.04724 : 350.78739 : 1"
       id="perspective2403" />
    <inkscape:perspective
       sodipodi:type="inkscape:persp3d"
       inkscape:vp_x="0 : 526.18109 : 1"
       inkscape:vp_y="0 : 1000 : 0"
       inkscape:vp_z="744.09448 : 526.18109 : 1"
       inkscape:persp3d-origin="372.04724 : 350.78739 : 1"
       id="perspective2416" />
  </defs>
  <metadata
     id="metadata7">
    <rdf:RDF>
      <cc:Work
         rdf:about="">
        <dc:format>image/svg+xml</dc:format>
        <dc:type
           rdf:resource="http://purl.org/dc/dcmitype/StillImage" />
      </cc:Work>
    </rdf:RDF>
  </metadata>
  <g
     id="layer1"
     inkscape:groupmode="layer"
     inkscape:label="Layer 1"
     transform="translate(544.69487,279.89954)">
    <path
       sodipodi:nodetypes="ccsssc"
       id="path3208"
       d="M -405.61373,1175.5886 C -405.61373,1175.5886 500.64495,1175.5886 732.47855,1177.9304 C 1062.5016,543.84098 742.79455,-99.212891 355.87741,-241.93035 C 323.09261,-254.02329 260.64731,-270.10251 224.37961,-274.08169 C 198.67481,-276.90194 205.71471,-276.36019 185.00621,-277.58349 C -328.43456,-308.3277 -779.34039,440.04923 -405.61373,1175.5886 z"
       style="fill:#000000;fill-opacity:1;fill-rule:evenodd;stroke:#000000;stroke-width:2.79999995;stroke-linecap:butt;stroke-linejoin:miter;stroke-miterlimit:4;stroke-dasharray:none;stroke-opacity:1" />
    <path
       sodipodi:nodetypes="ccsssc"
       id="path3210"
       d="M -383.24218,1149.8401 C -383.24218,1149.8401 489.47545,1151.5964 711.53075,1153.8393 C 1027.634,546.49476 723.16795,-75.875991 352.57031,-212.57386 C 321.16841,-224.15675 259.60061,-241.89954 224.86261,-245.71087 C 200.24201,-248.41217 206.99131,-248.00664 187.14991,-249.06497 C -318.6853,-276.17069 -750.57256,459.37498 -383.24218,1149.8401 z"
       style="fill:#ffff00;fill-opacity:1;fill-rule:evenodd;stroke:none;stroke-width:2.68190074;stroke-linecap:butt;stroke-linejoin:miter;stroke-miterlimit:4;stroke-dasharray:none;stroke-opacity:1" />
    <path
       sodipodi:nodetypes="ccccccccccc"
       id="path3212"
       d="M -272.29625,1138.9336 C -272.29625,1138.9336 -333.55778,1140.1357 -373.43071,1138.7843 C -494.22867,936.35354 -524.57461,643.71862 -490.67978,466.13513 C -429.4449,39.248662 -138.37529,-228.5385 153.51591,-230.6253 C 393.49911,-236.25339 774.19655,-16.240602 824.69085,555.83656 C 846.54205,846.4224 761.95715,1020.2468 701.87315,1138.9306 C 644.80005,1138.6365 601.76325,1137.7627 601.76325,1137.7627 C 601.76325,1137.7627 741.13655,899.12965 704.52855,532.49217 C 669.93915,251.038 505.04375,-102.11926 165.76031,-127.33248 C -167.92692,-117.47579 -340.90632,222.93292 -376.19986,515.68962 C -413.03821,851.37086 -310.36455,1068.4459 -272.29625,1138.9336 z"
       style="fill:#000080;fill-opacity:1;fill-rule:evenodd;stroke:none;stroke-width:1.39999998;stroke-linecap:butt;stroke-linejoin:miter;stroke-miterlimit:4;stroke-dasharray:none;stroke-opacity:1" />
    <text
       xml:space="preserve"
       style="font-size:543.7800293px;font-style:normal;font-weight:normal;fill:#000000;fill-opacity:1;stroke:none;stroke-width:1px;stroke-linecap:butt;stroke-linejoin:miter;stroke-opacity:1;font-family:Bitstream Vera Sans"
       x="237.56906"
       y="-413.10254"
       id="text3257"
       transform="scale(1.0393709,0.9621205)"><tspan
         sodipodi:role="line"
         id="tspan3259"
         x="237.56906"
         y="-413.10254" /></text>
    <text
       xml:space="preserve"
       style="font-size:40px;font-style:normal;font-weight:normal;fill:#000000;fill-opacity:1;stroke:none;stroke-width:1px;stroke-linecap:butt;stroke-linejoin:miter;stroke-opacity:1;font-family:Bitstream Vera Sans"
       x="-480.20221"
       y="-697.89209"
       id="text3261"><tspan
         sodipodi:role="line"
         id="tspan3263"
         x="-480.20221"
         y="-697.89209" /></text>
    <path
       style="fill:#000000;fill-opacity:1;fill-rule:evenodd;stroke:#000000;stroke-width:0;stroke-linecap:butt;stroke-linejoin:miter;stroke-miterlimit:4;stroke-dasharray:none;stroke-opacity:1"
       d="M -257.68939,1137.5806 C -257.68939,1137.5806 408.37965,1137.5806 578.76945,1139.5796 C 821.32505,598.3309 586.35135,49.430325 301.98041,-72.391031 C 277.88471,-82.713381 231.98961,-96.438341 205.33401,-99.834921 C 186.44191,-102.24222 191.61601,-101.77979 176.39591,-102.82399 C -200.96551,-129.06676 -532.36589,509.73591 -257.68939,1137.5806 z"
       id="path3277"
       sodipodi:nodetypes="ccsssc" />
    <path
       style="font-size:86px;font-style:normal;font-variant:normal;font-weight:900;font-stretch:normal;text-align:start;line-height:125%;writing-mode:lr-tb;text-anchor:start;fill:#ffff00;fill-opacity:1;stroke:none;stroke-width:1px;stroke-linecap:butt;stroke-linejoin:miter;stroke-opacity:1;font-family:Helvetica LT Black;-inkscape-font-specification:Helvetica LT Black Heavy"
       d="M -428.59983,800.8674 L -442.50223,803.36725 L -462.04759,805.785 L -464.43377,786.49488 L -402.98203,778.89336 L -400.6487,797.7563 L -431.39235,823.82873 L -417.48996,821.32888 L -398.03055,818.92177 L -395.64437,838.21188 L -457.09611,845.81341 L -459.42944,826.95046 L -428.59983,800.8674 z M -450.60812,713.26532 L -428.16325,718.55018 L -428.7332,705.74737 L -450.60812,713.26532 z M -405.95559,743.64614 L -468.80131,724.23165 L -469.7192,703.61291 L -408.84712,678.69344 L -407.94837,698.88218 L -416.00324,701.65245 L -415.10449,721.8412 L -406.83917,723.79824 L -405.95559,743.64614 z M -451.9472,609.78033 C -453.0415,609.92397 -453.92535,610.24437 -454.59875,610.74154 C -455.27206,611.23878 -455.8191,611.8545 -456.23989,612.58868 C -457.02383,614.00271 -457.44379,615.74076 -457.49977,617.80284 C -457.56035,620.03813 -457.30382,621.67988 -456.73019,622.7281 C -456.15647,623.77638 -455.29682,624.31604 -454.15125,624.34708 C -453.00385,624.37823 -452.04363,623.88793 -451.27059,622.87619 C -450.49747,621.8645 -449.802,620.53562 -449.18416,618.88954 C -448.56625,617.24353 -447.985,615.36677 -447.44041,613.25925 C -446.89575,611.1518 -446.27786,608.98897 -445.58674,606.77077 C -444.89555,604.55266 -444.07696,602.39528 -443.13097,600.29863 C -442.18491,598.20208 -440.98711,596.3416 -439.53758,594.71719 C -438.08799,593.09289 -436.36102,591.79199 -434.35668,590.81448 C -432.35228,589.83709 -429.94563,589.38646 -427.1367,589.46259 C -423.52494,589.56062 -420.40617,590.36196 -417.78039,591.86664 C -415.15458,593.37142 -413.00221,595.42297 -411.32324,598.0213 C -409.64428,600.61973 -408.40873,603.70754 -407.61659,607.28475 C -406.82446,610.86205 -406.48592,614.77137 -406.60096,619.01274 C -406.7113,623.08101 -407.37037,626.76199 -408.57816,630.05569 C -409.78595,633.34942 -411.36789,636.15997 -413.32399,638.48733 C -415.28008,640.81472 -417.52301,642.61797 -420.05279,643.89709 C -422.58255,645.17622 -425.2526,645.83543 -428.06294,645.87472 L -427.53593,626.44474 C -425.34751,626.10329 -423.68447,625.02995 -422.54683,623.2247 C -422.00907,622.43591 -421.59723,621.52948 -421.31129,620.5054 C -421.02534,619.48137 -420.86915,618.48224 -420.84274,617.508 C -420.77275,614.92821 -421.10414,612.86829 -421.83689,611.32823 C -422.56962,609.78824 -423.68108,608.99802 -425.17127,608.95756 C -426.7174,608.91566 -427.93001,609.75749 -428.80911,611.48305 C -429.68817,613.20869 -430.49272,615.38089 -431.22277,617.99966 C -431.95277,620.61849 -432.74673,623.46485 -433.60464,626.53874 C -434.46251,629.61268 -435.64344,632.44854 -437.14744,635.04633 C -438.65138,637.64416 -440.63083,639.78405 -443.0858,641.46602 C -445.5407,643.14801 -448.74544,643.93537 -452.70004,643.8281 C -455.96718,643.73949 -458.82913,642.98799 -461.2859,641.57361 C -463.74256,640.15924 -465.75503,638.241 -467.32331,635.8189 C -468.89148,633.39682 -470.04711,630.5409 -470.79022,627.25114 C -471.5332,623.96141 -471.85188,620.36812 -471.74624,616.47125 C -471.62957,612.17217 -471.01256,608.46073 -469.89521,605.33693 C -468.77774,602.21321 -467.30137,599.60065 -465.46611,597.49924 C -463.63074,595.39793 -461.50785,593.77783 -459.09746,592.63894 C -456.68697,591.50016 -454.12944,590.79501 -451.42489,590.5235 L -451.9472,609.78033 z M -445.32861,521.08095 L -423.89146,529.57507 L -422.59266,516.82557 L -445.32861,521.08095 z M -405.5713,557.63499 L -464.92371,529.28367 L -462.83202,508.75077 L -398.98211,492.95272 L -401.03018,513.05741 L -409.40239,514.6263 L -411.45045,534.73099 L -403.55781,537.86973 L -405.5713,557.63499 z M -400.77919,373.02736 L -400.74196,372.86087 L -436.56995,357.71118 L -432.29078,338.57609 L -375.22254,367.11119 L -379.57674,386.5818 L -416.2161,385.70316 L -416.25391,385.8722 L -382.71152,400.59952 L -387.06572,420.07013 L -450.85256,421.57848 L -446.57339,402.44339 L -407.70513,403.99798 L -407.66733,403.82893 L -443.40139,388.25919 L -439.74196,371.89538 L -400.77919,373.02736 z M -393.96121,278.71689 L -374.9656,291.78856 L -370.84938,279.65211 L -393.96121,278.71689 z M -363.38226,323.23396 L -414.89417,282.33128 L -408.26505,262.7857 L -342.49935,261.6619 L -348.99023,280.79987 L -357.50128,280.45735 L -363.99215,299.59531 L -357.00097,304.4191 L -363.38226,323.23396 z M -328.7358,228.37911 L -384.93773,202.38985 L -376.41821,183.96634 L -333.32999,203.89148 L -321.63575,178.60264 L -308.52205,184.66676 L -328.7358,228.37911 z M -290.69069,151.44597 L -343.58678,119.25742 L -333.03508,101.9176 L -292.48133,126.59553 L -277.99765,102.7942 L -265.6553,110.30481 L -290.69069,151.44597 z M -263.19622,26.124464 C -264.6497,27.899054 -265.45664,29.720871 -265.61703,31.58992 C -265.77739,33.459074 -265.51621,35.266358 -264.8335,37.011778 C -264.15076,38.757293 -263.14037,40.418887 -261.80233,41.996565 C -260.46427,43.574328 -259.0413,44.98073 -257.53343,46.215776 C -255.98088,47.487485 -254.28624,48.65333 -252.44952,49.713315 C -250.61278,50.77337 -248.73838,51.493329 -246.82631,51.873193 C -244.91424,52.253123 -243.02628,52.187515 -241.16241,51.67637 C -239.29855,51.16529 -237.60384,49.978476 -236.07826,48.115926 C -234.69684,46.429413 -233.85928,44.70619 -233.56556,42.946254 C -233.27187,41.1864 -233.4372,39.42087 -234.06155,37.649658 C -234.68592,35.87854 -235.68435,34.13401 -237.05685,32.416062 C -238.42937,30.698218 -240.11388,29.021609 -242.11039,27.38623 C -243.75093,26.042551 -245.51497,24.894487 -247.40254,23.942036 C -249.29011,22.989706 -251.17479,22.37272 -253.05657,22.091078 C -254.93834,21.80956 -256.75567,21.969783 -258.50855,22.571746 C -260.26141,23.173834 -261.82396,24.358072 -263.19622,26.124464 L -263.19622,26.124464 z M -274.79923,16.40007 C -271.31126,12.141804 -267.5585,9.0084373 -263.54095,6.9999618 C -259.52337,4.991641 -255.50597,3.9098351 -251.48874,3.7545408 C -247.4715,3.5994077 -243.54786,4.2377189 -239.7178,5.6694764 C -235.88775,7.1013912 -232.39852,9.1067192 -229.2501,11.685466 C -225.1691,15.028248 -222.06979,18.641721 -219.95215,22.525896 C -217.83458,26.410195 -216.62668,30.364078 -216.32845,34.387559 C -216.03028,38.411139 -216.56877,42.41655 -217.9439,46.403803 C -219.3191,50.391133 -221.46018,54.15931 -224.36715,57.708347 C -227.45489,61.478069 -230.82706,64.440862 -234.48368,66.596735 C -238.14033,68.752644 -241.96554,70.029186 -245.95933,70.426364 C -249.95312,70.82357 -254.02571,70.322227 -258.1771,68.922332 C -262.32847,67.522468 -266.44467,65.151173 -270.5257,61.808441 C -274.29538,58.720754 -277.20014,55.322608 -279.24001,51.613992 C -281.27981,47.905441 -282.48716,44.0634 -282.86205,40.087857 C -283.23688,36.112403 -282.74957,32.101825 -281.40013,28.05611 C -280.05063,24.010509 -277.85033,20.125166 -274.79923,16.40007 L -274.79923,16.40007 z M -180.06514,-39.036346 C -178.26037,-40.632396 -177.14038,-42.330628 -176.70514,-44.131046 C -176.26992,-45.93136 -176.94541,-47.841401 -178.7316,-49.861177 C -179.68091,-50.934544 -180.70878,-51.556022 -181.81519,-51.725612 C -182.92161,-51.895081 -184.0346,-51.790768 -185.15417,-51.412672 C -186.27374,-51.034456 -187.35354,-50.481254 -188.39358,-49.753066 C -189.4336,-49.024762 -190.36188,-48.299575 -191.17843,-47.577504 L -195.49376,-43.761123 L -186.37791,-33.453476 L -180.06514,-39.036346 z M -179.24763,5.2447072 L -220.26808,-41.13872 L -197.91486,-60.907401 C -191.25803,-66.794463 -185.04425,-69.764269 -179.27348,-69.816828 C -173.50272,-69.86923 -168.50891,-67.511391 -164.29204,-62.743304 C -162.08975,-60.252991 -160.47191,-57.666291 -159.43851,-54.983197 C -158.40516,-52.299975 -158.05627,-49.546949 -158.39183,-46.724108 C -158.72744,-43.901157 -159.76538,-41.050394 -161.50566,-38.171809 C -163.24598,-35.293132 -165.79115,-32.372471 -169.14116,-29.409817 L -176.80653,-22.630742 L -164.04469,-8.2004298 L -179.24763,5.2447072 z M -104.36218,-107.45746 C -105.08786,-108.28904 -105.84415,-108.84749 -106.63106,-109.13282 C -107.41799,-109.41802 -108.23362,-109.53249 -109.07797,-109.47621 C -110.6895,-109.34577 -112.36922,-108.73281 -114.11714,-107.63734 C -116.01183,-106.44976 -117.23671,-105.32688 -117.79176,-104.26871 C -118.34681,-103.21043 -118.32003,-102.19579 -117.7114,-101.22477 C -117.10184,-100.25217 -116.16179,-99.724232 -114.89125,-99.640949 C -113.62071,-99.557566 -112.12907,-99.714504 -110.41634,-100.11176 C -108.70361,-100.50893 -106.81906,-101.06442 -104.76269,-101.77824 C -102.70633,-102.49196 -100.56331,-103.17538 -98.333627,-103.8285 C -96.103974,-104.48151 -93.85433,-104.9948 -91.584689,-105.36839 C -89.315091,-105.74186 -87.102627,-105.77498 -84.947291,-105.46777 C -82.792011,-105.16044 -80.752377,-104.44304 -78.828383,-103.31559 C -76.904458,-102.18803 -75.196328,-100.43379 -73.703987,-98.052873 C -71.785221,-94.991372 -70.725099,-91.95081 -70.523618,-88.931176 C -70.322222,-85.911464 -70.838278,-82.983105 -72.071788,-80.146089 C -73.30538,-77.309013 -75.192031,-74.570086 -77.731747,-71.929299 C -80.271534,-69.288467 -83.338994,-66.841403 -86.934136,-64.588099 C -90.382558,-62.426757 -93.812424,-60.93679 -97.223743,-60.118194 C -100.63509,-59.299578 -103.85136,-59.060101 -106.87254,-59.399765 C -109.89374,-59.739409 -112.63741,-60.608176 -115.10355,-62.006067 C -117.56969,-63.403934 -119.59737,-65.26195 -121.18659,-67.580123 L -104.717,-77.902657 C -103.22065,-76.269649 -101.40589,-75.479456 -99.272724,-75.532074 C -98.318136,-75.521203 -97.335326,-75.680325 -96.324292,-76.009442 C -95.313292,-76.338506 -94.394895,-76.761834 -93.569099,-77.279428 C -91.382367,-78.649976 -89.850783,-80.066783 -88.974342,-81.529854 C -88.09795,-82.992861 -88.055582,-84.355944 -88.847239,-85.619107 C -89.66868,-86.929639 -91.041207,-87.473029 -92.964825,-87.249277 C -94.888484,-87.02545 -97.142693,-86.492256 -99.727459,-85.649695 C -102.31225,-84.807063 -105.12191,-83.891664 -108.15644,-82.903497 C -111.19098,-81.915264 -114.20622,-81.327878 -117.20217,-81.141338 C -120.19812,-80.954735 -123.07615,-81.417673 -125.83628,-82.530152 C -128.59637,-83.642566 -131.02689,-85.874805 -133.12784,-89.226875 C -134.86357,-91.996227 -135.82296,-94.795349 -136.00601,-97.624249 C -136.189,-100.45305 -135.70646,-103.19108 -134.55838,-105.83835 C -133.41025,-108.4855 -131.67242,-111.02945 -129.34488,-113.47022 C -127.01731,-115.91086 -124.20198,-118.16634 -120.89888,-120.23667 C -117.25478,-122.52059 -113.82285,-124.06244 -110.60307,-124.86224 C -107.3833,-125.66189 -104.39035,-125.87961 -101.62422,-125.51542 C -98.858119,-125.15107 -96.33344,-124.28082 -94.050178,-122.90467 C -91.766955,-121.52837 -89.763352,-119.78948 -88.039363,-117.688 L -104.36218,-107.45746 z M -3.2038635,-109.8061 L -24.216069,-168.05202 L 21.086035,-184.39475 L 25.988854,-170.80411 L -0.22217847,-161.34849 L 3.6012182,-150.75002 L 24.47228,-158.27925 L 29.375098,-144.68862 L 8.5040364,-137.15939 L 15.887209,-116.69321 L -3.2038635,-109.8061 z M 78.697666,-135.98005 L 66.438072,-196.67438 L 86.334225,-200.69318 L 95.733265,-154.16078 L 123.04353,-159.67715 L 125.90408,-145.51523 L 78.697666,-135.98005 z M 162.84387,-148.34607 L 168.33918,-210.02184 L 188.55706,-208.22043 L 183.06175,-146.54466 L 162.84387,-148.34607 z M 281.39959,-124.54906 L 268.79154,-127.99344 L 269.65413,-134.08882 C 268.56684,-133.37557 267.36304,-132.72363 266.04272,-132.133 C 264.72231,-131.54238 263.23859,-131.11564 261.59155,-130.85278 C 259.94442,-130.58993 258.12404,-130.50773 256.13042,-130.60618 C 254.13672,-130.70464 251.97866,-131.0711 249.65625,-131.70556 C 245.84005,-132.7481 242.35974,-134.36772 239.21531,-136.56441 C 236.07083,-138.76112 233.50518,-141.498 231.51834,-144.77508 C 229.53148,-148.05215 228.27479,-151.8276 227.74829,-156.10145 C 227.22176,-160.37527 227.66882,-165.11228 229.08946,-170.31249 C 230.38882,-175.06875 232.29757,-179.22733 234.81572,-182.78824 C 237.33385,-186.34907 240.33317,-189.16997 243.81372,-191.25092 C 247.29421,-193.33178 251.18574,-194.63158 255.4883,-195.15031 C 259.79079,-195.66893 264.3472,-195.27121 269.15755,-193.95714 C 272.75256,-192.97496 275.99799,-191.58275 278.89385,-189.78051 C 281.78958,-187.97818 284.2288,-185.8109 286.21151,-183.27867 C 288.19409,-180.74636 289.65115,-177.86705 290.58269,-174.64072 C 291.5141,-171.41432 291.78497,-167.89277 291.39531,-164.07603 L 272.81236,-169.15269 C 272.77341,-171.83862 272.07068,-174.05161 270.70419,-175.79166 C 269.33759,-177.53165 267.38169,-178.74932 264.8365,-179.44469 C 262.90221,-179.97306 261.11626,-180.01523 259.47866,-179.57117 C 257.84097,-179.12705 256.34056,-178.25913 254.97742,-176.96741 C 253.61421,-175.67563 252.40676,-174.02937 251.35507,-172.02863 C 250.30331,-170.02782 249.41479,-167.69996 248.68952,-165.04504 C 248.11543,-162.94368 247.75395,-160.85863 247.60508,-158.78988 C 247.45615,-156.72111 247.64773,-154.81145 248.17981,-153.06091 C 248.71183,-151.31035 249.65918,-149.77372 251.02188,-148.45104 C 252.38451,-147.12835 254.30976,-146.12717 256.79765,-145.44752 C 257.79343,-145.17548 258.8759,-145.05796 260.04507,-145.09498 C 261.21415,-145.132 262.35188,-145.32632 263.45827,-145.67796 C 264.56456,-146.02958 265.57663,-146.52577 266.49447,-147.16652 C 267.41221,-147.80727 268.15291,-148.61474 268.71657,-149.58896 L 260.08841,-151.94607 L 263.62408,-164.88831 L 290.41999,-157.56797 L 281.39959,-124.54906 z M 319.22384,-110.76312 L 345.87128,-166.65599 L 364.1911,-157.92185 L 355.19718,-139.05715 L 372.51016,-130.80303 L 381.50408,-149.66773 L 399.82391,-140.93359 L 373.17647,-85.040713 L 354.85665,-93.774855 L 365.1822,-115.43266 L 347.86922,-123.68678 L 337.54367,-102.02897 L 319.22384,-110.76312 z M 440.96541,-116.57178 L 487.26015,-83.730797 L 477.85597,-70.474065 L 462.98523,-81.023206 L 436.56302,-43.776775 L 420.00977,-55.519472 L 446.43197,-92.765903 L 431.56123,-103.31504 L 440.96541,-116.57178 z M 500.90379,10.846608 L 545.85954,-31.733668 L 578.97734,3.2317042 L 568.48772,13.167042 L 549.32633,-7.0633317 L 541.14615,0.6846073 L 556.40379,16.793449 L 545.91418,26.728787 L 530.65654,10.619945 L 514.86019,25.581607 L 500.90379,10.846608 z M 608.84937,71.372643 L 587.19191,79.288211 L 594.70209,89.67253 L 608.84937,71.372643 z M 554.84831,70.520194 L 618.02581,52.21421 L 630.12084,68.938004 L 592.94979,123.20312 L 581.107,106.8281 L 586.31528,100.08798 L 574.47249,83.712954 L 566.49115,86.61876 L 554.84831,70.520194 z M 663.78066,168.64874 C 666.49969,166.81261 668.15764,164.63065 668.75453,162.10285 C 669.3513,159.57503 668.87113,156.90725 667.31402,154.0995 C 665.56247,150.94134 662.88416,149.21453 659.27908,148.91907 C 655.6739,148.62361 651.23877,149.93589 645.97369,152.8559 C 644.06866,153.91239 642.30261,155.0724 640.67553,156.33593 C 639.04838,157.59945 637.76667,158.98253 636.8304,160.48517 C 635.89407,161.98779 635.4017,163.67037 635.35328,165.53293 C 635.30481,167.39546 635.906,169.45442 637.15686,171.70983 C 638.742,174.56806 640.80802,176.22529 643.35491,176.68154 C 645.90174,177.13772 648.57599,176.81802 651.37767,175.72245 L 660.84543,192.79393 C 657.11449,194.33882 653.48075,195.17414 649.94418,195.2999 C 646.40752,195.42556 643.05548,194.90821 639.88802,193.74785 C 636.7205,192.5874 633.78848,190.78823 631.09193,188.35032 C 628.39534,185.91233 626.05972,182.91307 624.08506,179.35253 C 621.61055,174.89069 620.05062,170.51138 619.40529,166.21459 C 618.75993,161.91776 618.98997,157.84023 620.0954,153.98197 C 621.20082,150.12371 623.14707,146.56941 625.93417,143.31908 C 628.72123,140.06876 632.32042,137.22035 636.73177,134.77384 C 641.09409,132.35452 645.4196,130.87345 649.7083,130.33064 C 653.99692,129.78787 658.04376,130.05094 661.84882,131.11985 C 665.65378,132.1888 669.13149,133.99696 672.28196,136.54433 C 675.4323,139.09173 678.05042,142.24593 680.13634,146.00695 C 684.72376,154.27874 686.34689,161.78616 685.00575,168.52922 C 683.66446,175.27224 679.70377,180.9276 673.12368,185.4953 L 663.78066,168.64874 z M 655.8119,238.52592 L 712.33566,213.24423 L 720.62323,231.77324 L 664.09946,257.05492 L 655.8119,238.52592 z M 680.20793,295.51371 L 738.62839,274.99179 L 745.35566,294.14255 L 700.56656,309.87605 L 709.80068,336.16315 L 696.16932,340.95157 L 680.20793,295.51371 z M 706.11128,377.31251 L 766.22973,362.48444 L 771.0905,382.19182 L 710.97205,397.01988 L 706.11128,377.31251 z M 780.28817,424.29012 L 789.15422,480.35372 L 773.10013,482.89256 L 770.25219,464.88387 L 725.14623,472.01705 L 721.97606,451.97083 L 767.08202,444.83764 L 764.23408,426.82896 L 780.28817,424.29012 z M 734.55924,564.62484 L 733.17872,544.3765 L 755.65797,542.84389 L 793.38763,517.16955 L 794.93203,539.82161 L 774.72299,551.88759 L 796.38288,561.10162 L 797.90371,583.40805 L 757.3815,563.06884 L 734.55924,564.62484 z M 734.62016,710.79145 L 735.06502,697.72895 L 741.19507,697.16303 C 740.25036,696.26947 739.33845,695.2484 738.45933,694.09982 C 737.58021,692.95115 736.8229,691.60578 736.1874,690.06371 C 735.5519,688.52155 735.05223,686.76916 734.6884,684.80655 C 734.32457,682.84385 734.18363,680.65945 734.26557,678.25332 C 734.40022,674.29957 735.17383,670.53962 736.58641,666.97346 C 737.99899,663.40725 740.07065,660.27973 742.80138,657.5909 C 745.53211,654.90204 748.91613,652.80879 752.95347,651.31115 C 756.99077,649.8135 761.70324,649.15641 767.09088,649.33989 C 772.01857,649.5077 776.50518,650.40629 780.55072,652.03566 C 784.59617,653.66501 788.03256,655.93319 790.85989,658.84022 C 793.68711,661.74721 795.84906,665.23424 797.34576,669.30131 C 798.84233,673.36833 799.50579,677.89369 799.33613,682.87741 C 799.20922,686.60202 798.60274,690.08099 797.51668,693.31433 C 796.4305,696.54758 794.88396,699.42074 792.87706,701.93384 C 790.87004,704.44682 788.40421,706.52845 785.47956,708.17872 C 782.55481,709.82887 779.19056,710.90432 775.38681,711.4051 L 776.04248,692.15234 C 778.64708,691.49521 780.63844,690.30122 782.01658,688.57037 C 783.39462,686.83943 784.12857,684.6555 784.21842,682.01856 C 784.28662,680.01456 783.9159,678.267 783.10627,676.77589 C 782.29654,675.28471 781.10609,674.02481 779.53491,672.9962 C 777.96364,671.96753 776.08335,671.17214 773.89404,670.61004 C 771.70466,670.04789 769.23466,669.71999 766.48405,669.62634 C 764.30694,669.55218 762.19472,669.68113 760.14739,670.01322 C 758.10001,670.34525 756.28596,670.97193 754.70525,671.89326 C 753.12449,672.81453 751.84768,674.09063 750.87479,675.72155 C 749.90187,677.35242 749.37153,679.45663 749.28377,682.03419 C 749.24862,683.06586 749.38383,684.14626 749.6894,685.2754 C 749.99495,686.40445 750.44634,687.46674 751.04357,688.46225 C 751.64078,689.45768 752.35693,690.32809 753.19203,691.07348 C 754.02709,691.81878 754.98358,692.35336 756.0615,692.67723 L 756.36593,683.73808 L 769.77466,684.19472 L 768.82921,711.95646 L 734.62016,710.79145 z M 772.17821,787.59171 C 773.28031,787.53247 774.18614,787.28083 774.8957,786.8368 C 775.60518,786.39269 776.19786,785.82077 776.67374,785.12103 C 777.56387,783.77133 778.11596,782.07062 778.33,780.01893 C 778.56192,777.79487 778.43213,776.13828 777.94062,775.04913 C 777.44903,773.95992 776.63333,773.35589 775.49352,773.23703 C 774.35188,773.11794 773.35687,773.53311 772.50848,774.48255 C 771.66001,775.43194 770.86462,776.70353 770.1223,778.29735 C 769.3799,779.89109 768.65636,781.71772 767.95166,783.77724 C 767.24689,785.83668 766.46486,787.94572 765.60558,790.10434 C 764.74622,792.26288 763.7645,794.35109 762.66042,796.36897 C 761.55627,798.38674 760.21925,800.14982 758.64934,801.65822 C 757.07939,803.1665 755.25769,804.33106 753.18425,805.15188 C 751.11077,805.97258 748.67663,806.23721 745.88183,805.94577 C 742.28824,805.5709 739.24015,804.5326 736.73757,802.83088 C 734.23497,801.12905 732.24636,798.91838 730.77173,796.19889 C 729.29709,793.47929 728.30213,790.30577 727.78682,786.67833 C 727.27152,783.0508 727.23394,779.12702 727.67409,774.90699 C 728.09629,770.85918 729.03586,767.23962 730.49282,764.04831 C 731.94979,760.85696 733.74273,758.17609 735.87164,756.00569 C 738.00055,753.83526 740.37524,752.20943 742.99571,751.1282 C 745.61617,750.04695 748.32892,749.59457 751.13399,749.77104 L 749.11762,769.1033 C 746.90945,769.27581 745.16896,770.21838 743.89614,771.93101 C 743.29945,772.67621 742.81927,773.54837 742.4556,774.54749 C 742.0919,775.54656 741.85951,776.53076 741.75842,777.5001 C 741.49069,780.06691 741.66303,782.14619 742.27546,783.73794 C 742.88786,785.32961 743.93541,786.20278 745.4181,786.35747 C 746.95645,786.51788 748.23008,785.77158 749.239,784.11856 C 750.24788,782.46547 751.21674,780.36141 752.14558,777.80638 C 753.07438,775.25128 754.0844,772.47424 755.17566,769.47524 C 756.26687,766.47619 757.66192,763.73931 759.36082,761.26458 C 761.05966,758.78982 763.19748,756.80812 765.77427,755.31948 C 768.35099,753.83083 771.6067,753.2917 775.54141,753.70209 C 778.79212,754.04114 781.58797,755.01003 783.92896,756.60876 C 786.26985,758.20747 788.1292,760.27447 789.507,762.80977 C 790.88469,765.34504 791.81778,768.28121 792.30626,771.6183 C 792.79462,774.95533 792.83664,778.56248 792.4323,782.43976 C 791.98609,786.71721 791.08611,790.37036 789.73235,793.39922 C 788.37848,796.42798 786.706,798.91955 784.7149,800.87394 C 782.7237,802.82822 780.48276,804.28065 777.99209,805.23123 C 775.50132,806.18169 772.89723,806.68851 770.17981,806.75169 L 772.17821,787.59171 z M 720.98984,841.36013 L 782.00877,851.88577 L 773.82221,899.34466 L 759.58455,896.88869 L 764.32116,869.42978 L 753.2181,867.51453 L 749.44649,889.37924 L 735.20882,886.92327 L 738.98044,865.05856 L 717.53989,861.36011 L 720.98984,841.36013 z M 731.81193,973.00025 C 735.03582,973.60933 737.74927,973.22599 739.95229,971.85022 C 742.15523,970.47434 743.69158,968.24113 744.56134,965.15056 C 745.53956,961.67421 744.85204,958.56254 742.49879,955.81552 C 740.14547,953.06843 736.07107,950.87945 730.27557,949.24858 C 728.17865,948.65847 726.10761,948.23971 724.06244,947.99229 C 722.01724,947.74482 720.13332,947.82539 718.41065,948.23401 C 716.68797,948.64258 715.15403,949.49144 713.80884,950.7806 C 712.46363,952.06969 711.44172,953.95555 710.74311,956.43818 C 709.85774,959.58434 710.15922,962.21568 711.64755,964.33221 C 713.13586,966.44866 715.26074,968.10356 718.02218,969.29694 L 712.7342,988.08819 C 708.99637,986.56006 705.82696,984.59621 703.22594,982.19666 C 700.62493,979.79698 698.6076,977.07039 697.17394,974.0169 C 695.7403,970.9633 694.92346,967.62165 694.72344,963.99195 C 694.52344,960.36216 694.97489,956.58765 696.07778,952.66843 C 697.45986,947.7571 699.43362,943.54807 701.99906,940.0413 C 704.56451,936.5345 707.59755,933.79956 711.09818,931.83647 C 714.5988,929.87336 718.48286,928.71795 722.75038,928.37024 C 727.01786,928.02252 731.57946,928.53187 736.43519,929.89831 C 741.23698,931.24956 745.35229,933.24148 748.78116,935.87407 C 752.20994,938.50662 754.89982,941.54152 756.85082,944.97877 C 758.80172,948.41597 759.9999,952.14803 760.44537,956.17495 C 760.89074,960.20181 760.53095,964.2852 759.36601,968.42515 C 756.80372,977.53018 752.67344,984.00603 746.97514,987.85272 C 741.27676,991.69926 734.48293,992.92966 726.59362,991.54392 L 731.81193,973.00025 z"
       id="text3279" />
    <path
       style="fill:none;fill-rule:evenodd;stroke:#ff00ff;stroke-width:0;stroke-linecap:butt;stroke-linejoin:miter;stroke-miterlimit:4;stroke-dasharray:none;stroke-opacity:1"
       d="M -394.37194,844.02659 C -417.42298,696.15411 -419.87627,475.7245 -346.20777,273.2771 C -265.49837,51.945833 -101.05921,-124.57257 166.40899,-150.0816 C 175.72006,-144.39193 181.83766,-148.98284 189.29272,-146.23197 C 454.16436,-103.75707 601.91825,94.296145 679.94615,295.78129 C 786.52645,571.47552 715.43275,917.95409 685.79055,989.30916"
       id="path3290"
       sodipodi:nodetypes="cccccc" />
    <path
       style="fill:#ff0000;fill-rule:evenodd;stroke:#ff00ff;stroke-width:0;stroke-linecap:butt;stroke-linejoin:miter;stroke-miterlimit:4;stroke-dasharray:none;stroke-opacity:1"
       d="M -94.990497,647.39113 C -94.990497,647.39113 -88.470397,716.55647 -75.611997,787.06026 C -41.887497,971.97409 93.558303,1242.8207 182.6566,783.86172 C 215.2713,1083.492 420.3037,1054.4499 510.89195,587.39113 C 481.86794,506.06441 436.77434,534.44995 406.1861,556.80289 C 300.3037,957.97939 177.9508,649.74407 180.3037,422.68525 C 169.7155,799.15584 30.891903,861.50878 -42.049197,637.97936 C -72.637497,626.21466 -79.696397,606.21466 -94.990497,647.39113 z"
       id="path3316"
       sodipodi:nodetypes="cscccccc" />
    <path
       style="fill:#000000;fill-rule:evenodd;stroke:#000000;stroke-width:1px;stroke-linecap:butt;stroke-linejoin:miter;stroke-opacity:1"
       d="M -78.352937,854.00924 L -50.117667,955.18571 L -10.117667,1037.5386 L 56.941133,1042.2445 L 81.647083,1062.2445 L 118.11765,935.18571 L 120.47059,1024.5975 L 244,999.89163 L 420.47059,996.36223 L 442.82353,911.6563 L 459.29412,852.83277 L 27.529433,854.00924 L 13.411733,914.00924 L -1.8823665,854.00924 L -78.352937,854.00924 z"
       id="path3320"
       sodipodi:nodetypes="ccccccccccccccc" />
    <path
       transform="scale(1.0466313,0.9554463)"
       style="font-size:316.75738525px;font-style:normal;font-variant:normal;font-weight:900;font-stretch:normal;text-align:start;line-height:125%;writing-mode:lr-tb;text-anchor:start;fill:#ffff00;fill-opacity:1;stroke:none;stroke-width:1px;stroke-linecap:butt;stroke-linejoin:miter;stroke-opacity:1;font-family:Helvetica LT Black;-inkscape-font-specification:Helvetica LT Black Heavy"
       d="M 10.900026,1053.372 L 11.528359,1053.372 L 37.183697,912.41269 L 109.40338,912.41269 L 52.708366,1140.4784 L -20.777646,1140.4784 L -47.070984,1008.074 L -47.708984,1008.074 L -73.683322,1140.4784 L -147.16933,1140.4784 L -203.86434,912.41269 L -131.64466,912.41269 L -105.98933,1053.372 L -105.35133,1053.372 L -78.110656,912.41269 L -16.350312,912.41269 L 10.900026,1053.372 z M 134.74938,1140.4784 L 134.74938,912.41269 L 312.13274,912.41269 L 312.13274,965.6277 L 209.50172,965.6277 L 209.50172,1007.1267 L 291.22374,1007.1267 L 291.22374,1060.3417 L 209.50172,1060.3417 L 209.50172,1140.4784 L 134.74938,1140.4784 z M 345.71477,1140.4784 L 345.71477,912.41269 L 523.09813,912.41269 L 523.09813,965.6277 L 420.46712,965.6277 L 420.46712,1007.1267 L 502.18913,1007.1267 L 502.18913,1060.3417 L 420.46712,1060.3417 L 420.46712,1140.4784 L 345.71477,1140.4784 z"
       id="text3296" />
    <path
       style="fill:#ffffff;fill-rule:evenodd;stroke:#000000;stroke-width:0;stroke-linecap:butt;stroke-linejoin:miter;stroke-miterlimit:4;stroke-dasharray:none;stroke-opacity:1"
       d="M 625.17645,664.50924 L 625.32345,629.65629 L 635.17645,636.421 L 640.02935,630.09747 L 631.49995,622.59747 L 651.64705,622.30335 L 651.79405,613.62688 L 632.82345,613.33277 L 640.02935,602.74453 L 633.11765,597.89159 L 625.91175,605.39159 L 625.91175,572.15629 L 616.79405,572.30335 L 616.79405,605.53865 L 605.32345,598.62688 L 601.49995,604.21512 L 610.76465,613.18571 L 590.47055,613.33277 L 590.17645,621.71512 L 608.70585,621.86218 L 602.08815,631.12688 C 602.08815,631.12688 608.41175,637.00924 608.70585,636.27394 C 608.99995,635.53865 616.35285,628.03865 616.35285,628.03865 L 616.49995,663.77394 L 625.17645,664.50924 z"
       id="path3342" />
    <path
       id="path3344"
       d="M 344.11764,349.21512 L 344.2647,314.36217 L 354.11764,321.12688 L 358.97059,314.80335 L 350.44117,307.30335 L 370.58823,307.00923 L 370.73529,298.33276 L 351.7647,298.03865 L 358.97059,287.45041 L 352.05882,282.59747 L 344.85294,290.09747 L 344.85294,256.86217 L 335.73529,257.00923 L 335.73529,290.24453 L 324.2647,283.33276 L 320.44117,288.921 L 329.70588,297.89159 L 309.41176,298.03865 L 309.11764,306.421 L 327.64706,306.56806 L 321.02941,315.83276 C 321.02941,315.83276 327.35294,321.71512 327.64706,320.97982 C 327.94117,320.24453 335.29411,312.74453 335.29411,312.74453 L 335.44117,348.47982 L 344.11764,349.21512 z"
       style="fill:#ffffff;fill-rule:evenodd;stroke:#000000;stroke-width:0;stroke-linecap:butt;stroke-linejoin:miter;stroke-miterlimit:4;stroke-dasharray:none;stroke-opacity:1" />
    <path
       style="fill:#ffffff;fill-rule:evenodd;stroke:#000000;stroke-width:0;stroke-linecap:butt;stroke-linejoin:miter;stroke-miterlimit:4;stroke-dasharray:none;stroke-opacity:1"
       d="M 345.29411,111.56806 L 345.44117,76.715116 L 355.29411,83.479826 L 360.14706,77.156296 L 351.61764,69.656296 L 371.7647,69.362176 L 371.91176,60.685706 L 352.94117,60.391596 L 360.14706,49.803357 L 353.23529,44.950417 L 346.02941,52.450417 L 346.02941,19.215117 L 336.91176,19.362177 L 336.91176,52.597477 L 325.44117,45.685707 L 321.61764,51.273947 L 330.88235,60.244536 L 310.58823,60.391596 L 310.29411,68.773946 L 328.82353,68.921006 L 322.20588,78.185706 C 322.20588,78.185706 328.52941,84.068066 328.82353,83.332766 C 329.11764,82.597476 336.47058,75.097476 336.47058,75.097476 L 336.61764,110.83276 L 345.29411,111.56806 z"
       id="path3346" />
    <path
       id="path3348"
       d="M 72.352963,36.273949 L 72.499963,1.4209994 L 82.352963,8.1857094 L 87.205863,1.8621794 L 78.676463,-5.6378216 L 98.823523,-5.9319416 L 98.970583,-14.608411 L 79.999963,-14.902521 L 87.205863,-25.490761 L 80.294163,-30.343701 L 73.088263,-22.843701 L 73.088263,-56.079008 L 63.970563,-55.931948 L 63.970563,-22.696641 L 52.499963,-29.608411 L 48.676463,-24.020171 L 57.941163,-15.049581 L 37.647063,-14.902521 L 37.352963,-6.5201716 L 55.882363,-6.3731116 L 49.264663,2.8915894 C 49.264663,2.8915894 55.588263,8.7739494 55.882363,8.0386494 C 56.176463,7.3033594 63.529363,-0.19664061 63.529363,-0.19664061 L 63.676463,35.538649 L 72.352963,36.273949 z"
       style="fill:#ffffff;fill-rule:evenodd;stroke:#000000;stroke-width:0;stroke-linecap:butt;stroke-linejoin:miter;stroke-miterlimit:4;stroke-dasharray:none;stroke-opacity:1" />
    <path
       style="fill:#ffffff;fill-rule:evenodd;stroke:#000000;stroke-width:0;stroke-linecap:butt;stroke-linejoin:miter;stroke-miterlimit:4;stroke-dasharray:none;stroke-opacity:1"
       d="M -64.117637,244.50924 L -63.970637,209.65629 L -54.117637,216.421 L -49.264737,210.09747 L -57.794137,202.59747 L -37.647037,202.30335 L -37.500037,193.62688 L -56.470637,193.33277 L -49.264737,182.74453 L -56.176437,177.89159 L -63.382337,185.39159 L -63.382337,152.15628 L -72.500037,152.30334 L -72.500037,185.53865 L -83.970637,178.62688 L -87.794137,184.21512 L -78.529437,193.18571 L -98.823537,193.33277 L -99.117637,201.71512 L -80.588237,201.86218 L -87.205937,211.12688 C -87.205937,211.12688 -80.882337,217.00924 -80.588237,216.27394 C -80.294137,215.53865 -72.941237,208.03865 -72.941237,208.03865 L -72.794137,243.77394 L -64.117637,244.50924 z"
       id="path3350" />
    <path
       id="path3352"
       d="M -264.11764,583.33277 L -263.97064,548.47982 L -254.11764,555.24453 L -249.26474,548.921 L -257.79414,541.421 L -237.64704,541.12688 L -237.50004,532.45041 L -256.47064,532.1563 L -249.26474,521.56806 L -256.17644,516.71512 L -263.38234,524.21512 L -263.38234,490.97981 L -272.50004,491.12687 L -272.50004,524.36218 L -283.97064,517.45041 L -287.79414,523.03865 L -278.52944,532.00924 L -298.82354,532.1563 L -299.11764,540.53865 L -280.58824,540.68571 L -287.20594,549.95041 C -287.20594,549.95041 -280.88234,555.83277 -280.58824,555.09747 C -280.29414,554.36218 -272.94124,546.86218 -272.94124,546.86218 L -272.79414,582.59747 L -264.11764,583.33277 z"
       style="fill:#ffffff;fill-rule:evenodd;stroke:#000000;stroke-width:0;stroke-linecap:butt;stroke-linejoin:miter;stroke-miterlimit:4;stroke-dasharray:none;stroke-opacity:1" />
    <path
       style="fill:#ffffff;fill-rule:evenodd;stroke:#000000;stroke-width:0;stroke-linecap:butt;stroke-linejoin:miter;stroke-miterlimit:4;stroke-dasharray:none;stroke-opacity:1"
       d="M 22.941163,585.68571 L 23.088163,550.83276 L 32.941163,557.59747 L 37.794063,551.27394 L 29.264663,543.77394 L 49.411763,543.47982 L 49.558763,534.80335 L 30.588163,534.50924 L 37.794063,523.921 L 30.882363,519.06806 L 23.676463,526.56806 L 23.676463,493.33275 L 14.558763,493.47981 L 14.558763,526.71512 L 3.0881635,519.80335 L -0.73533654,525.39159 L 8.5293635,534.36218 L -11.764737,534.50924 L -12.058837,542.89159 L 6.4705635,543.03865 L -0.14713654,552.30335 C -0.14713654,552.30335 6.1764635,558.18571 6.4705635,557.45041 C 6.7646635,556.71512 14.117563,549.21512 14.117563,549.21512 L 14.264663,584.95041 L 22.941163,585.68571 z"
       id="path3354" />
    <path
       style="fill:#ffff00;fill-rule:evenodd;stroke:none;stroke-width:1px;stroke-linecap:butt;stroke-linejoin:miter;stroke-opacity:1"
       d="M -189.54619,161.77394 L -139.01397,232.36218 L -41.647107,644.12688 L -94.644267,655.89159 L -196.94123,245.30335 L -189.54619,161.77394 z"
       id="path3356" />
    <path
       style="fill:#ffff00;fill-rule:evenodd;stroke:none;stroke-width:1px;stroke-linecap:butt;stroke-linejoin:miter;stroke-opacity:1"
       d="M 191.7647,414.71512 L 170.58823,414.71512 C 170.58823,414.71512 85.955073,217.87149 70.864473,134.65317 C 66.108573,81.053297 105.04687,51.134018 162.35293,38.244535 C 221.03064,38.428702 260.42694,40.402727 285.41199,124.18642 C 261.85561,243.03753 192.48832,414.71512 191.7647,414.71512 z"
       id="path3358"
       sodipodi:nodetypes="cccccc" />
    <path
       style="fill:none;fill-rule:evenodd;stroke:#000000;stroke-width:8;stroke-linecap:butt;stroke-linejoin:miter;stroke-miterlimit:4;stroke-dasharray:none;stroke-opacity:1"
       d="M 129.41176,53.538655 C 123.10394,69.099395 116.60748,116.53254 151.14392,236.83788 L 176.47058,407.65631"
       id="path3362"
       sodipodi:nodetypes="ccc" />
    <path
       sodipodi:nodetypes="ccc"
       id="path3364"
       d="M 231.44796,54.715126 C 237.75578,70.275866 244.25224,117.70901 209.7158,238.01435 L 184.38914,408.83278"
       style="fill:none;fill-rule:evenodd;stroke:#000000;stroke-width:8;stroke-linecap:butt;stroke-linejoin:miter;stroke-miterlimit:4;stroke-dasharray:none;stroke-opacity:1" />
    <path
       sodipodi:nodetypes="ccc"
       id="path3366"
       d="M 151.768,44.036076 C 148.29701,57.234593 144.72221,97.467062 163.72651,199.50925 L 177.66296,344.39631"
       style="fill:none;fill-rule:evenodd;stroke:#000000;stroke-width:5.46543264;stroke-linecap:butt;stroke-linejoin:miter;stroke-miterlimit:4;stroke-dasharray:none;stroke-opacity:1" />
    <path
       style="fill:none;fill-rule:evenodd;stroke:#000000;stroke-width:5.46543264;stroke-linecap:butt;stroke-linejoin:miter;stroke-miterlimit:4;stroke-dasharray:none;stroke-opacity:1"
       d="M 207.91525,45.033951 C 211.38625,58.232467 214.96104,98.46494 195.95675,200.50713 L 182.0203,345.39418"
       id="path3368"
       sodipodi:nodetypes="ccc" />
    <path
       style="fill:#ffff00;fill-rule:evenodd;stroke:none;stroke-width:1px;stroke-linecap:butt;stroke-linejoin:miter;stroke-opacity:1"
       d="M 529.41175,354.12689 C 529.41175,354.12689 541.62095,294.33554 542.94115,279.42101 C 544.84965,232.74178 522.94115,275.30336 522.94115,275.30336 L 498.23529,347.06807 L 454.11764,365.8916 L 448.82352,397.65631 L 441.17647,397.06807 L 445.88235,370.00925 L 427.05882,380.00925 L 421.17647,411.77395 L 414.70588,410.59748 L 419.41176,382.36219 L 401.17647,391.77395 L 395.29411,424.71513 L 388.23529,422.95042 L 393.52941,393.53866 L 337.64705,422.36219 L 335.29411,442.95042 L 478.23529,422.95042 L 455.29411,516.47984 L 412.94117,527.65631 L 402.35294,557.6563 C 402.35294,557.6563 402.8512,565.17519 406.47058,565.30336 C 418.32525,561.90212 451.17647,556.47984 451.17647,556.47984 L 447.64705,572.95042 C 447.64705,572.95042 449.7642,584.04981 455.88235,575.30336 C 459.05932,571.26279 464.11764,558.24454 464.11764,558.24454 C 464.11764,558.24454 494.48242,587.64831 502.94117,594.71513 C 512.57635,591.78195 513.52945,584.12689 513.52945,584.12689 L 520.58825,564.71513 L 484.11764,516.47984 L 507.64705,428.24454 L 621.17645,521.77395 L 624.70585,485.30336 L 594.11765,445.30336 L 587.64705,471.77395 L 580.00005,468.83278 L 587.64705,435.30336 L 575.88235,420.00925 L 570.58825,447.65631 L 563.52945,443.53866 L 570.58825,409.42101 L 558.23525,392.95042 L 551.17645,421.77395 L 543.52945,416.47984 L 550.58825,382.95042 L 529.41175,354.12689 z"
       id="path3370"
       sodipodi:nodetypes="ccccccccccccccccccccccccccccccccccccccccccccccc" />
  </g>
</svg>
